<svg width="70" height="70" viewBox="0 0 70 70" fill="none" xmlns="http://www.w3.org/2000/svg">
<path d="M57.9787 6.03192H12.0213C8.8531 6.03192 6.27661 8.60841 6.27661 11.7766V46.2447C6.27661 49.4129 8.8531 51.9894 12.0213 51.9894H20.6383V62.8095L38.668 51.9894H57.9787C61.1469 51.9894 63.7234 49.4129 63.7234 46.2447V11.7766C63.7234 8.60841 61.1469 6.03192 57.9787 6.03192ZM57.9787 46.2447H37.0767L26.383 52.6586V46.2447H12.0213V11.7766H57.9787V46.2447Z" fill="#E32120"/>
<path d="M49.9564 20.9882L45.8949 16.9267L32.1277 30.6938L25.5415 24.1075L21.48 28.169L32.1277 38.8168L49.9564 20.9882Z" fill="#E32120"/>
</svg>
