<svg width="84" height="65" viewBox="0 0 84 65" fill="none" xmlns="http://www.w3.org/2000/svg">
<g clip-path="url(#clip0_29_614)">
<path d="M39.7462 1.5078L37.2214 2.6428L6.11609 16.6263L3.59134 17.7613C2.36626 18.3135 1.45706 19.2436 1.0632 20.3474C0.669351 21.4513 0.823013 22.6388 1.49048 23.6494L24.6539 58.6278C25.3241 59.6372 26.4529 60.3863 27.7927 60.7108C29.1324 61.0353 30.5737 60.9087 31.8003 60.3588L31.8068 60.3559L67.9486 44.1082L67.9551 44.1053C69.1802 43.5531 70.0894 42.623 70.4833 41.5192C70.8771 40.4153 70.7234 39.2278 70.056 38.2172L46.8926 3.23877C46.2223 2.22939 45.0935 1.48027 43.7538 1.15576C42.414 0.831253 40.9728 0.957856 39.7462 1.5078Z" fill="#F2F2F2"/>
<path d="M40.4734 2.6053L37.483 3.94963L7.30887 17.5145L4.31853 18.8588C3.44612 19.2521 2.79865 19.9144 2.51818 20.7004C2.2377 21.4865 2.34713 22.3322 2.82245 23.0519L25.9859 58.0303C26.4631 58.7491 27.267 59.2825 28.2211 59.5136C29.1751 59.7447 30.2015 59.6545 31.075 59.2629L31.0815 59.26L67.2233 43.0124L67.2298 43.0094C68.1022 42.6162 68.7497 41.9538 69.0302 41.1678C69.3106 40.3817 69.2012 39.5361 68.7259 38.8164L45.5625 3.83798C45.0852 3.11918 44.2813 2.58571 43.3273 2.35462C42.3732 2.12353 41.3469 2.21368 40.4734 2.6053Z" fill="#E32120"/>
<path d="M40.972 13.4627L27.4925 19.5224C27.2883 19.6142 27.0482 19.6354 26.825 19.5814C26.6019 19.5273 26.4139 19.4024 26.3025 19.2342C26.191 19.0659 26.1653 18.8681 26.2309 18.6842C26.2965 18.5003 26.4481 18.3454 26.6523 18.2536L40.1318 12.1939C40.336 12.1021 40.5761 12.0809 40.7993 12.1349C41.0225 12.189 41.2105 12.3139 41.3219 12.4821C41.4333 12.6504 41.459 12.8482 41.3934 13.0321C41.3278 13.216 41.1762 13.3709 40.972 13.4627Z" fill="#F2F2F2"/>
<path d="M45.5661 14.1758L28.9105 21.6634C28.7063 21.7552 28.4662 21.7764 28.243 21.7223C28.0198 21.6682 27.8319 21.5434 27.7204 21.3751C27.609 21.2068 27.5833 21.009 27.6489 20.8251C27.7145 20.6413 27.8661 20.4864 28.0703 20.3946L44.7259 12.907C44.827 12.8616 44.938 12.833 45.0525 12.8228C45.167 12.8127 45.2828 12.8213 45.3933 12.8481C45.5038 12.8748 45.6069 12.9193 45.6965 12.9788C45.7862 13.0384 45.8607 13.112 45.9159 13.1953C45.9711 13.2786 46.0058 13.37 46.0181 13.4644C46.0303 13.5587 46.0199 13.6542 45.9875 13.7452C45.955 13.8363 45.901 13.9212 45.8287 13.995C45.7564 14.0689 45.6672 14.1303 45.5661 14.1758Z" fill="#F2F2F2"/>
<path d="M21.9509 17L9.52362 22.5868C9.42579 22.6308 9.35318 22.705 9.32175 22.7931C9.29032 22.8812 9.30264 22.976 9.356 23.0566L14.6479 31.0477C14.7013 31.1283 14.7913 31.1881 14.8983 31.214C15.0052 31.2399 15.1202 31.2298 15.2181 31.1858L27.6454 25.5991C27.7432 25.5551 27.8158 25.4809 27.8473 25.3928C27.8787 25.3047 27.8664 25.2099 27.813 25.1293L22.5212 17.1382C22.4678 17.0576 22.3777 16.9977 22.2708 16.9718C22.1638 16.9459 22.0488 16.9561 21.9509 17Z" fill="#F2F2F2"/>
<path d="M47.6601 23.6022L29.3768 31.8215C29.2757 31.8669 29.1647 31.8955 29.0502 31.9056C28.9357 31.9158 28.8198 31.9072 28.7093 31.8804C28.5988 31.8537 28.4958 31.8092 28.4061 31.7496C28.3165 31.6901 28.2419 31.6165 28.1867 31.5332C28.1316 31.4499 28.0969 31.3585 28.0846 31.2641C28.0723 31.1697 28.0827 31.0743 28.1152 30.9833C28.1477 30.8922 28.2016 30.8073 28.2739 30.7334C28.3462 30.6596 28.4355 30.5981 28.5366 30.5527L46.8199 22.3334C47.0241 22.2416 47.2642 22.2204 47.4873 22.2745C47.7105 22.3285 47.8985 22.4534 48.0099 22.6217C48.1213 22.7899 48.1471 22.9877 48.0815 23.1716C48.0159 23.3555 47.8643 23.5104 47.6601 23.6022Z" fill="#F2F2F2"/>
<path d="M52.2541 24.3152L30.7948 33.9623C30.5906 34.0541 30.3505 34.0753 30.1273 34.0212C29.9041 33.9672 29.7161 33.8423 29.6047 33.674C29.4933 33.5058 29.4676 33.308 29.5332 33.1241C29.5988 32.9402 29.7504 32.7853 29.9546 32.6935L51.4139 23.0464C51.6181 22.9546 51.8582 22.9334 52.0814 22.9875C52.3046 23.0415 52.4925 23.1664 52.604 23.3347C52.7154 23.5029 52.7411 23.7007 52.6755 23.8846C52.6099 24.0685 52.4583 24.2234 52.2541 24.3152Z" fill="#F2F2F2"/>
<path d="M22.4135 38.5527C24.4687 38.5527 26.1347 37.18 26.1347 35.4867C26.1347 33.7935 24.4687 32.4208 22.4135 32.4208C20.3584 32.4208 18.6924 33.7935 18.6924 35.4867C18.6924 37.18 20.3584 38.5527 22.4135 38.5527Z" fill="#F2F2F2"/>
<path d="M78.0902 15.9215H36.9038C35.5074 15.9228 34.1686 16.3804 33.1811 17.194C32.1937 18.0076 31.6383 19.1106 31.6367 20.2612V60.1075C31.6383 61.2581 32.1937 62.3611 33.1811 63.1747C34.1686 63.9883 35.5074 64.4459 36.9038 64.4472H78.0902C79.4866 64.4459 80.8254 63.9883 81.8128 63.1747C82.8003 62.3611 83.3557 61.2581 83.3573 60.1075V20.2612C83.3557 19.1106 82.8003 18.0076 81.8128 17.194C80.8254 16.3804 79.4866 15.9228 78.0902 15.9215Z" fill="#E6E6E6"/>
<path d="M78.0901 17.1708H36.9036C35.9092 17.1717 34.9558 17.4976 34.2527 18.0769C33.5495 18.6563 33.1539 19.4418 33.1528 20.2612V60.1075C33.1539 60.9268 33.5495 61.7123 34.2527 62.2917C34.9558 62.8711 35.9092 63.1969 36.9036 63.1979H78.0901C79.0845 63.1969 80.0379 62.871 80.7411 62.2917C81.4442 61.7123 81.8398 60.9268 81.8409 60.1075V20.2612C81.8398 19.4418 81.4442 18.6563 80.7411 18.077C80.0379 17.4976 79.0845 17.1717 78.0901 17.1708Z" fill="#E32120"/>
<path d="M72.2164 26.8984H56.861C56.6284 26.8984 56.4053 26.8222 56.2408 26.6867C56.0763 26.5512 55.9839 26.3673 55.9839 26.1757C55.9839 25.984 56.0763 25.8002 56.2408 25.6647C56.4053 25.5291 56.6284 25.453 56.861 25.453H72.2164C72.3317 25.4529 72.4458 25.4715 72.5524 25.5078C72.6589 25.5441 72.7557 25.5973 72.8372 25.6644C72.9188 25.7315 72.9835 25.8112 73.0276 25.8989C73.0718 25.9867 73.0945 26.0807 73.0945 26.1757C73.0945 26.2706 73.0718 26.3647 73.0276 26.4524C72.9835 26.5402 72.9188 26.6199 72.8372 26.687C72.7557 26.7541 72.6589 26.8073 72.5524 26.8436C72.4458 26.8798 72.3317 26.8985 72.2164 26.8984Z" fill="#FF4000"/>
<path d="M75.8345 29.3373H56.861C56.6284 29.3373 56.4053 29.2612 56.2408 29.1257C56.0763 28.9901 55.9839 28.8063 55.9839 28.6146C55.9839 28.423 56.0763 28.2392 56.2408 28.1036C56.4053 27.9681 56.6284 27.892 56.861 27.892H75.8345C76.0671 27.892 76.2902 27.9681 76.4547 28.1036C76.6192 28.2392 76.7116 28.423 76.7116 28.6146C76.7116 28.8063 76.6192 28.9901 76.4547 29.1257C76.2902 29.2612 76.0671 29.3373 75.8345 29.3373Z" fill="#FF4000"/>
<path d="M53.4623 22.4972H39.3055C39.1941 22.4972 39.0872 22.5337 39.0084 22.5986C38.9296 22.6636 38.8853 22.7516 38.8853 22.8435V31.9467C38.8853 32.0385 38.9296 32.1266 39.0084 32.1915C39.0872 32.2564 39.1941 32.2929 39.3055 32.2929H53.4623C53.5738 32.2929 53.6807 32.2564 53.7595 32.1915C53.8383 32.1266 53.8825 32.0385 53.8826 31.9467V22.8435C53.8825 22.7516 53.8383 22.6636 53.7595 22.5986C53.6806 22.5337 53.5738 22.4972 53.4623 22.4972Z" fill="#E6E6E6"/>
<path d="M43.189 28.0872C43.1949 28.8557 42.8511 29.5981 42.2255 30.1681C41.6064 30.7278 40.6849 31.099 39.7549 30.9454C38.8986 30.804 38.2027 30.1874 38.2896 29.4414C38.304 29.2798 38.361 29.1227 38.4566 28.9812C38.5522 28.8396 38.6841 28.7169 38.8432 28.6216C39.0023 28.5264 39.1847 28.4609 39.3776 28.4296C39.5706 28.3984 39.7695 28.4022 39.9604 28.4408C40.7739 28.6148 41.098 29.5808 40.4202 30.0342C40.2575 30.143 40.0238 29.9527 40.188 29.8429C40.6361 29.5431 40.4977 28.8874 39.9568 28.723C39.3271 28.5315 38.6599 28.9433 38.6146 29.4737C38.5609 30.1026 39.1457 30.5763 39.8628 30.6878C40.6385 30.8084 41.4076 30.4813 41.9333 30.0297C42.5357 29.5054 42.8681 28.8092 42.8607 28.0872C42.8622 28.0521 42.8801 28.0189 42.9107 27.9945C42.9414 27.9702 42.9823 27.9565 43.0249 27.9565C43.0674 27.9565 43.1084 27.9702 43.139 27.9945C43.1696 28.0189 43.1876 28.0521 43.189 28.0872Z" fill="#2F2E41"/>
<path d="M46.395 29.807C49.63 29.807 52.2525 27.6463 52.2525 24.9809C52.2525 22.3155 49.63 20.1548 46.395 20.1548C43.1601 20.1548 40.5376 22.3155 40.5376 24.9809C40.5376 27.6463 43.1601 29.807 46.395 29.807Z" fill="#FF4000"/>
<path d="M46.0954 27.0402L46.0894 26.8598C46.4966 26.8505 46.8556 26.8294 47.1253 26.667C47.2018 26.6184 47.2647 26.5567 47.3097 26.4863C47.3546 26.4158 47.3807 26.3382 47.386 26.2587C47.3907 26.2101 47.3818 26.1613 47.3599 26.116C47.338 26.0708 47.3038 26.0303 47.2598 25.9977C47.0807 25.8731 46.7926 25.9134 46.5826 25.9928L46.4014 26.0612L46.7488 23.97L46.9656 23.9945L46.6702 25.7733C46.9556 25.7042 47.22 25.7339 47.4011 25.86C47.4706 25.91 47.5252 25.9726 47.5605 26.0428C47.5958 26.1131 47.611 26.1892 47.6047 26.265C47.5983 26.3718 47.5637 26.4762 47.5032 26.5708C47.4427 26.6654 47.3578 26.748 47.2545 26.8127C46.9078 27.0214 46.4574 27.0318 46.0954 27.0402Z" fill="#2F2E41"/>
<path d="M49.217 24.1478H48.0381V24.3282H49.217V24.1478Z" fill="#2F2E41"/>
<path d="M45.4958 24.1478H44.3169V24.3282H45.4958V24.1478Z" fill="#2F2E41"/>
<path d="M43.1504 32.293C43.5894 32.0635 44.0639 31.8836 44.5612 31.7583C44.5137 31.6193 44.5145 31.4722 44.5633 31.3335C44.6293 31.1584 44.7623 31.0056 44.9424 30.8978C45.1225 30.7901 45.34 30.7332 45.5626 30.7357H46.9897C47.2127 30.7333 47.4305 30.7903 47.611 30.8982C47.7914 31.0061 47.9248 31.1591 47.9912 31.3344C48.0401 31.4728 48.0408 31.6196 47.9934 31.7583C48.4905 31.8838 48.965 32.0636 49.4041 32.293H43.1504Z" fill="#2F2E41"/>
<path d="M53.1044 23.1897C52.9977 23.0832 52.8664 22.9952 52.7181 22.9309C52.588 22.8749 52.4435 22.8455 52.2967 22.8452C52.0952 22.8473 51.8995 22.9015 51.7375 23.0003C51.292 23.26 50.9834 23.82 50.9834 24.4684C50.9834 25.2818 51.4693 25.9563 52.1008 26.0735C52.1651 26.0854 52.2308 26.0914 52.2967 26.0915C53.0202 26.0915 53.6101 25.3638 53.6101 24.4684C53.6101 23.949 53.412 23.4864 53.1044 23.1897Z" fill="#3F3D56"/>
<path d="M41.0744 22.9615H41.0734C40.927 22.8867 40.7585 22.8464 40.5863 22.8452C40.4395 22.8455 40.295 22.8749 40.1649 22.9309C40.0166 22.9952 39.8853 23.0832 39.7786 23.1897L39.7775 23.1906C39.4711 23.4873 39.2729 23.9499 39.2729 24.4684C39.2729 25.1681 39.6319 25.7651 40.1354 25.9932C40.2732 26.0569 40.4283 26.0907 40.5863 26.0915C40.6214 26.0915 40.6565 26.0897 40.6914 26.0861H40.6924C41.3666 26.0194 41.8996 25.3196 41.8996 24.4684C41.8996 23.7866 41.5571 23.2014 41.0744 22.9615Z" fill="#3F3D56"/>
<path d="M40.2174 25.8383C40.2435 25.8383 40.2692 25.8331 40.2924 25.8233C40.3155 25.8135 40.3356 25.7993 40.3508 25.7819C40.366 25.7644 40.3759 25.7442 40.3798 25.723C40.3836 25.7018 40.3813 25.6801 40.373 25.6597C40.0593 24.891 39.9649 24.073 40.0972 23.2692C40.2295 22.4655 40.585 21.6978 41.136 21.0257C41.687 20.3536 42.4187 19.7952 43.2741 19.394C44.1296 18.9927 45.0859 18.7594 46.0686 18.7122C47.0513 18.6649 48.034 18.805 48.9403 19.1216C49.8466 19.4381 50.6522 19.9226 51.2943 20.5374C51.9364 21.1521 52.3978 21.8806 52.6427 22.6662C52.8876 23.4517 52.9093 24.2732 52.7061 25.0669C52.6972 25.102 52.7055 25.1386 52.7292 25.1686C52.753 25.1987 52.7903 25.2197 52.8329 25.2271C52.8755 25.2345 52.9199 25.2277 52.9564 25.2081C52.9929 25.1885 53.0184 25.1578 53.0274 25.1227C53.2411 24.2883 53.2184 23.4246 52.961 22.5986C52.7037 21.7726 52.2186 21.0067 51.5435 20.3603C50.8684 19.7139 50.0215 19.2045 49.0686 18.8716C48.1157 18.5388 47.0825 18.3915 46.0493 18.4412C45.016 18.4909 44.0106 18.7362 43.1112 19.1581C42.2117 19.5801 41.4425 20.1672 40.8633 20.8739C40.284 21.5806 39.9104 22.3878 39.7714 23.2329C39.6324 24.0779 39.7318 24.938 40.0619 25.7462C40.0729 25.773 40.0938 25.7963 40.1217 25.8129C40.1496 25.8294 40.1831 25.8383 40.2174 25.8383Z" fill="#3F3D56"/>
<path d="M49.3378 21.854C49.5697 22.1148 49.4554 22.4664 49.211 22.6913C48.893 22.9839 48.3859 23.0024 47.9456 22.9481C47.4515 22.8871 46.9275 22.6964 46.4273 22.8249C46.0009 22.9345 45.6968 23.2531 45.2539 23.3331C44.8611 23.4041 44.3914 23.3101 44.2537 22.9652C44.1875 22.7994 44.5045 22.7284 44.5703 22.8933C44.6594 23.1164 45.044 23.112 45.2643 23.0502C45.6175 22.9511 45.8897 22.7101 46.2368 22.595C46.646 22.4593 47.09 22.5206 47.5067 22.5979C47.8994 22.6708 48.3514 22.7788 48.7426 22.6427C49.0321 22.542 49.2625 22.2247 49.0543 21.9905C48.9292 21.8499 49.214 21.7148 49.3378 21.854Z" fill="#2F2E41"/>
<path d="M72.1931 38.4384H51.3654C51.2502 38.4384 51.1362 38.4197 51.0297 38.3834C50.9233 38.3471 50.8266 38.2938 50.7452 38.2267C50.6637 38.1596 50.5991 38.08 50.555 37.9923C50.511 37.9046 50.4883 37.8106 50.4883 37.7157C50.4883 37.6208 50.511 37.5268 50.555 37.4392C50.5991 37.3515 50.6637 37.2718 50.7452 37.2047C50.8266 37.1376 50.9233 37.0844 51.0297 37.0481C51.1362 37.0117 51.2502 36.993 51.3654 36.993H72.1931C72.4255 36.9933 72.6484 37.0695 72.8127 37.205C72.9769 37.3405 73.0692 37.5242 73.0692 37.7157C73.0692 37.9072 72.9769 38.0909 72.8127 38.2264C72.6484 38.3619 72.4255 38.4382 72.1931 38.4384Z" fill="#E6E6E6"/>
<path d="M75.8112 40.8775H51.3654C51.2501 40.8776 51.136 40.859 51.0294 40.8227C50.9229 40.7864 50.8261 40.7332 50.7446 40.6661C50.663 40.599 50.5983 40.5193 50.5542 40.4315C50.51 40.3438 50.4873 40.2498 50.4873 40.1548C50.4873 40.0598 50.51 39.9658 50.5542 39.8781C50.5983 39.7903 50.663 39.7106 50.7446 39.6435C50.8261 39.5764 50.9229 39.5232 51.0294 39.4869C51.136 39.4506 51.2501 39.432 51.3654 39.4321H75.8112C75.9264 39.432 76.0406 39.4506 76.1471 39.4869C76.2537 39.5232 76.3505 39.5764 76.432 39.6435C76.5136 39.7106 76.5783 39.7903 76.6224 39.8781C76.6665 39.9658 76.6893 40.0598 76.6893 40.1548C76.6893 40.2498 76.6665 40.3438 76.6224 40.4315C76.5783 40.5193 76.5136 40.599 76.432 40.6661C76.3505 40.7332 76.2537 40.7864 76.1471 40.8227C76.0406 40.859 75.9264 40.8776 75.8112 40.8775Z" fill="#E6E6E6"/>
<path d="M72.1931 47.2049H51.3654C51.1328 47.2049 50.9097 47.1287 50.7452 46.9932C50.5807 46.8577 50.4883 46.6739 50.4883 46.4822C50.4883 46.2905 50.5807 46.1067 50.7452 45.9712C50.9097 45.8357 51.1328 45.7595 51.3654 45.7595H72.1931C72.4257 45.7595 72.6488 45.8357 72.8133 45.9712C72.9778 46.1067 73.0702 46.2905 73.0702 46.4822C73.0702 46.6739 72.9778 46.8577 72.8133 46.9932C72.6488 47.1287 72.4257 47.2049 72.1931 47.2049Z" fill="#E6E6E6"/>
<path d="M75.8112 49.6438H51.3654C51.1328 49.6438 50.9097 49.5677 50.7452 49.4322C50.5807 49.2966 50.4883 49.1128 50.4883 48.9212C50.4883 48.7295 50.5807 48.5457 50.7452 48.4102C50.9097 48.2746 51.1328 48.1985 51.3654 48.1985H75.8112C76.0438 48.1985 76.2669 48.2746 76.4314 48.4102C76.5959 48.5457 76.6883 48.7295 76.6883 48.9212C76.6883 49.1128 76.5959 49.2966 76.4314 49.4322C76.2669 49.5677 76.0438 49.6438 75.8112 49.6438Z" fill="#E6E6E6"/>
<path d="M43.122 41.9741C45.1772 41.9741 46.8432 40.6014 46.8432 38.9081C46.8432 37.2148 45.1772 35.8422 43.122 35.8422C41.0669 35.8422 39.4009 37.2148 39.4009 38.9081C39.4009 40.6014 41.0669 41.9741 43.122 41.9741Z" fill="#E6E6E6"/>
<path d="M43.122 50.8114C45.1772 50.8114 46.8432 49.4387 46.8432 47.7454C46.8432 46.0521 45.1772 44.6794 43.122 44.6794C41.0669 44.6794 39.4009 46.0521 39.4009 47.7454C39.4009 49.4387 41.0669 50.8114 43.122 50.8114Z" fill="#E6E6E6"/>
<path d="M72.1931 56.042H51.3654C51.1328 56.042 50.9097 55.9659 50.7452 55.8304C50.5807 55.6948 50.4883 55.511 50.4883 55.3194C50.4883 55.1277 50.5807 54.9439 50.7452 54.8083C50.9097 54.6728 51.1328 54.5967 51.3654 54.5967H72.1931C72.4257 54.5967 72.6488 54.6728 72.8133 54.8083C72.9778 54.9439 73.0702 55.1277 73.0702 55.3194C73.0702 55.511 72.9778 55.6948 72.8133 55.8304C72.6488 55.9659 72.4257 56.042 72.1931 56.042Z" fill="#E6E6E6"/>
<path d="M75.8112 58.481H51.3654C51.1328 58.481 50.9097 58.4049 50.7452 58.2693C50.5807 58.1338 50.4883 57.95 50.4883 57.7583C50.4883 57.5667 50.5807 57.3828 50.7452 57.2473C50.9097 57.1118 51.1328 57.0356 51.3654 57.0356H75.8112C76.0438 57.0356 76.2669 57.1118 76.4314 57.2473C76.5959 57.3828 76.6883 57.5667 76.6883 57.7583C76.6883 57.95 76.5959 58.1338 76.4314 58.2693C76.2669 58.4049 76.0438 58.481 75.8112 58.481Z" fill="#E6E6E6"/>
<path d="M43.122 59.6485C45.1772 59.6485 46.8432 58.2758 46.8432 56.5826C46.8432 54.8893 45.1772 53.5166 43.122 53.5166C41.0669 53.5166 39.4009 54.8893 39.4009 56.5826C39.4009 58.2758 41.0669 59.6485 43.122 59.6485Z" fill="#E6E6E6"/>
</g>
<defs>
<clipPath id="clip0_29_614">
<rect width="82.9152" height="63.158" fill="white" transform="translate(0.848633 0.979126)"/>
</clipPath>
</defs>
</svg>
