<svg width="33" height="33" viewBox="0 0 33 33" fill="none" xmlns="http://www.w3.org/2000/svg">
<path d="M19.9584 14.1361C21.2441 14.1361 22.2875 15.1796 22.2875 16.4652V22.7856C22.2875 24.3744 21.6564 25.8981 20.533 27.0215C19.4096 28.1449 17.8859 28.776 16.2971 28.776C14.7084 28.776 13.1847 28.1449 12.0613 27.0215C10.9379 25.8981 10.3067 24.3744 10.3067 22.7856V16.4652C10.3067 15.1796 11.3488 14.1361 12.6358 14.1361H19.9584ZM19.9584 16.1325H12.6358C12.5476 16.1325 12.4629 16.1675 12.4005 16.2299C12.3382 16.2923 12.3031 16.377 12.3031 16.4652V22.7856C12.3031 23.8449 12.7239 24.8608 13.4729 25.6099C14.2219 26.3589 15.2378 26.7797 16.2971 26.7797C17.3564 26.7797 18.3723 26.3589 19.1213 25.6099C19.8704 24.8608 20.2912 23.8449 20.2912 22.7856V16.4652C20.2912 16.377 20.2561 16.2923 20.1937 16.2299C20.1313 16.1675 20.0467 16.1325 19.9584 16.1325ZM5.31321 14.1361H9.81298C9.34358 14.7033 9.05685 15.3993 8.99048 16.1325H5.31321C5.22496 16.1325 5.14033 16.1675 5.07793 16.2299C5.01554 16.2923 4.98048 16.377 4.98048 16.4652V20.7893C4.98014 21.2923 5.09385 21.7888 5.31307 22.2416C5.53228 22.6943 5.85129 23.0914 6.2461 23.4031C6.64092 23.7148 7.10126 23.9329 7.59251 24.041C8.08376 24.1491 8.59313 24.1445 9.08232 24.0274C9.19544 24.6982 9.40173 25.3383 9.68521 25.9332C9.24513 26.053 8.78597 26.1133 8.30773 26.1142C7.60852 26.1142 6.91615 25.9765 6.27017 25.7089C5.6242 25.4412 5.03727 25.049 4.54291 24.5545C4.04855 24.06 3.65644 23.473 3.38898 22.827C3.12153 22.1809 2.98396 21.4885 2.98413 20.7893V16.4652C2.98413 15.1796 4.02756 14.1361 5.31321 14.1361ZM22.7813 14.1361H27.2731C28.5587 14.1361 29.6021 15.1796 29.6021 16.4652V20.7906C29.6023 21.6067 29.4149 22.4119 29.0543 23.144C28.6938 23.876 28.1697 24.5154 27.5227 25.0127C26.8757 25.51 26.123 25.8519 25.3228 26.012C24.5225 26.1721 23.6963 26.146 22.9077 25.9359C23.1925 25.3396 23.3988 24.6995 23.5133 24.0287C23.759 24.0873 24.0141 24.117 24.2785 24.1179C25.161 24.1179 26.0073 23.7673 26.6313 23.1433C27.2552 22.5194 27.6058 21.6731 27.6058 20.7906V16.4652C27.6058 16.377 27.5707 16.2923 27.5083 16.2299C27.4459 16.1675 27.3613 16.1325 27.2731 16.1325H23.6038C23.5374 15.3993 23.2507 14.7033 22.7813 14.1361ZM16.2931 4.81982C17.3521 4.81982 18.3676 5.24048 19.1164 5.98926C19.8652 6.73804 20.2858 7.7536 20.2858 8.81253C20.2858 9.87146 19.8652 10.887 19.1164 11.6358C18.3676 12.3846 17.3521 12.8052 16.2931 12.8052C15.2342 12.8052 14.2186 12.3846 13.4699 11.6358C12.7211 10.887 12.3004 9.87146 12.3004 8.81253C12.3004 7.7536 12.7211 6.73804 13.4699 5.98926C14.2186 5.24048 15.2342 4.81982 16.2931 4.81982ZM24.944 6.15072C25.8264 6.15072 26.6727 6.50127 27.2967 7.12525C27.9207 7.74923 28.2712 8.59553 28.2712 9.47798C28.2712 10.3604 27.9207 11.2067 27.2967 11.8307C26.6727 12.4547 25.8264 12.8052 24.944 12.8052C24.0615 12.8052 23.2152 12.4547 22.5913 11.8307C21.9673 11.2067 21.6167 10.3604 21.6167 9.47798C21.6167 8.59553 21.9673 7.74923 22.5913 7.12525C23.2152 6.50127 24.0615 6.15072 24.944 6.15072ZM7.64228 6.15072C8.52472 6.15072 9.37102 6.50127 9.995 7.12525C10.619 7.74923 10.9695 8.59553 10.9695 9.47798C10.9695 10.3604 10.619 11.2067 9.995 11.8307C9.37102 12.4547 8.52472 12.8052 7.64228 12.8052C6.75984 12.8052 5.91354 12.4547 5.28956 11.8307C4.66558 11.2067 4.31503 10.3604 4.31503 9.47798C4.31503 8.59553 4.66558 7.74923 5.28956 7.12525C5.91354 6.50127 6.75984 6.15072 7.64228 6.15072ZM16.2931 6.81617C15.7637 6.81617 15.2559 7.0265 14.8815 7.40089C14.5071 7.77528 14.2968 8.28306 14.2968 8.81253C14.2968 9.34199 14.5071 9.84977 14.8815 10.2242C15.2559 10.5985 15.7637 10.8089 16.2931 10.8089C16.8226 10.8089 17.3304 10.5985 17.7048 10.2242C18.0792 9.84977 18.2895 9.34199 18.2895 8.81253C18.2895 8.28306 18.0792 7.77528 17.7048 7.40089C17.3304 7.0265 16.8226 6.81617 16.2931 6.81617ZM24.944 8.14707C24.591 8.14707 24.2525 8.28729 24.0029 8.53689C23.7533 8.78648 23.6131 9.125 23.6131 9.47798C23.6131 9.83095 23.7533 10.1695 24.0029 10.4191C24.2525 10.6687 24.591 10.8089 24.944 10.8089C25.297 10.8089 25.6355 10.6687 25.8851 10.4191C26.1347 10.1695 26.2749 9.83095 26.2749 9.47798C26.2749 9.125 26.1347 8.78648 25.8851 8.53689C25.6355 8.28729 25.297 8.14707 24.944 8.14707ZM7.64228 8.14707C7.28931 8.14707 6.95079 8.28729 6.70119 8.53689C6.4516 8.78648 6.31138 9.125 6.31138 9.47798C6.31138 9.83095 6.4516 10.1695 6.70119 10.4191C6.95079 10.6687 7.28931 10.8089 7.64228 10.8089C7.99526 10.8089 8.33378 10.6687 8.58337 10.4191C8.83296 10.1695 8.97318 9.83095 8.97318 9.47798C8.97318 9.125 8.83296 8.78648 8.58337 8.53689C8.33378 8.28729 7.99526 8.14707 7.64228 8.14707Z" fill="#E32120"/>
</svg>
