<svg width="34" height="34" viewBox="0 0 34 34" fill="none" xmlns="http://www.w3.org/2000/svg">
<path d="M27.7216 29.7693L18.9068 20.9545C18.2073 21.5142 17.4027 21.9573 16.4933 22.2838C15.5838 22.6102 14.616 22.7735 13.59 22.7735C11.0482 22.7735 8.89693 21.8932 7.1363 20.1325C5.37567 18.3719 4.49536 16.2207 4.49536 13.6789C4.49536 11.137 5.37567 8.98579 7.1363 7.22517C8.89693 5.46454 11.0482 4.58423 13.59 4.58423C16.1318 4.58423 18.283 5.46454 20.0437 7.22517C21.8043 8.98579 22.6846 11.137 22.6846 13.6789C22.6846 14.7049 22.5214 15.6727 22.1949 16.5821C21.8684 17.4916 21.4254 18.2961 20.8657 18.9957L29.6805 27.8105L27.7216 29.7693ZM13.59 19.9751C15.339 19.9751 16.8256 19.363 18.0498 18.1387C19.2741 16.9144 19.8863 15.4278 19.8863 13.6789C19.8863 11.9299 19.2741 10.4433 18.0498 9.21899C16.8256 7.99471 15.339 7.38257 13.59 7.38257C11.841 7.38257 10.3544 7.99471 9.13012 9.21899C7.90584 10.4433 7.29371 11.9299 7.29371 13.6789C7.29371 15.4278 7.90584 16.9144 9.13012 18.1387C10.3544 19.363 11.841 19.9751 13.59 19.9751Z" fill="#49454F"/>
</svg>
