<svg width="23" height="23" viewBox="0 0 23 23" fill="none" xmlns="http://www.w3.org/2000/svg">
<path d="M11.5005 1.45831C12.6931 1.45776 13.6963 1.87287 14.5376 2.71417C15.3786 3.55538 15.7926 4.55773 15.7915 5.74933V8.16632H17.2505C17.6435 8.1664 17.9679 8.30087 18.2505 8.58331C18.5331 8.86594 18.6669 9.19024 18.6665 9.58234V19.1663C18.6665 19.5598 18.5326 19.8847 18.2505 20.1673C17.9688 20.4495 17.6444 20.5838 17.2505 20.5833H5.75049C5.35694 20.5833 5.0324 20.4492 4.75049 20.1673C4.46862 19.8854 4.33404 19.5608 4.3335 19.1663V9.58331C4.3335 9.19005 4.46804 8.86627 4.75049 8.58429C4.99816 8.33704 5.27752 8.203 5.60693 8.17316L5.75049 8.16632H7.2085V5.75031C7.2085 4.55679 7.62385 3.55411 8.46436 2.71417C9.30503 1.87412 10.3075 1.45889 11.5005 1.45831ZM5.25049 19.6663H17.7505V9.08331H5.25049V19.6663ZM11.4985 12.9583C11.8943 12.9593 12.2194 13.0943 12.5005 13.3753C12.7815 13.6564 12.916 13.9806 12.9165 14.3753C12.917 14.7691 12.7835 15.0936 12.5015 15.3753C12.2189 15.6574 11.8939 15.7912 11.5005 15.7913H11.4976C11.1092 15.7932 10.7856 15.6604 10.5005 15.3753C10.2156 15.0903 10.0822 14.7664 10.0835 14.3773C10.0849 13.9849 10.22 13.6592 10.5024 13.3743C10.7824 13.092 11.1048 12.9575 11.4985 12.9583ZM11.5005 2.37531C10.5708 2.37531 9.76372 2.70582 9.10986 3.35968C8.456 4.01354 8.12549 4.8206 8.12549 5.75031V8.16632H14.8755V5.75031C14.8755 4.8206 14.544 4.01354 13.8901 3.35968C13.2364 2.706 12.43 2.37538 11.5005 2.37531Z" fill="#796C6C" stroke="#796C6C"/>
</svg>
