<svg width="33" height="33" viewBox="0 0 33 33" fill="none" xmlns="http://www.w3.org/2000/svg">
<path d="M14.962 28.7765V19.0942C14.5627 18.8502 14.2411 18.5343 13.9971 18.1466C13.7531 17.7589 13.6311 17.3095 13.6311 16.7984C13.6311 16.0664 13.8919 15.44 14.4137 14.9192C14.9354 14.3983 15.5618 14.1375 16.2929 14.1366C17.024 14.1357 17.6509 14.3966 18.1735 14.9192C18.6961 15.4418 18.9565 16.0682 18.9547 16.7984C18.9547 17.3086 18.8327 17.7633 18.5887 18.1626C18.3447 18.5618 18.0231 18.8724 17.6238 19.0942V28.7765C17.6238 29.1536 17.496 29.4699 17.2405 29.7254C16.985 29.981 16.6691 30.1083 16.2929 30.1074C15.9167 30.1065 15.6008 29.9787 15.3453 29.7241C15.0898 29.4694 14.962 29.1536 14.962 28.7765ZM8.07458 25.4825C7.8084 25.7487 7.48677 25.8818 7.10968 25.8818C6.73259 25.8818 6.42205 25.7376 6.17805 25.4492C5.17987 24.2736 4.39775 22.9538 3.83167 21.4898C3.2656 20.0258 2.983 18.462 2.98389 16.7984C2.98389 14.9573 3.33347 13.2271 4.03264 11.6079C4.7318 9.98861 5.67985 8.58008 6.87677 7.38227C8.0737 6.18445 9.48223 5.23641 11.1024 4.53813C12.7225 3.83985 14.4527 3.49027 16.2929 3.48938C18.1331 3.48849 19.8633 3.83808 21.4834 4.53813C23.1036 5.23818 24.5121 6.18623 25.709 7.38227C26.9059 8.5783 27.8544 9.98684 28.5545 11.6079C29.2545 13.2289 29.6037 14.9591 29.6019 16.7984C29.6019 18.462 29.3189 20.0258 28.7528 21.4898C28.1867 22.9538 27.405 24.2736 26.4077 25.4492C26.1637 25.7376 25.859 25.8875 25.4934 25.8991C25.1279 25.9106 24.8115 25.7828 24.5445 25.5158C24.3005 25.2718 24.1785 24.9612 24.1785 24.5842C24.1785 24.2071 24.3005 23.8743 24.5445 23.586C25.2987 22.6543 25.8865 21.6118 26.3079 20.4584C26.7294 19.3049 26.9401 18.0849 26.9401 16.7984C26.9401 13.826 25.9086 11.3084 23.8458 9.24553C21.7829 7.18263 19.2652 6.15118 16.2929 6.15118C13.3205 6.15118 10.8029 7.18263 8.74003 9.24553C6.67714 11.3084 5.64569 13.826 5.64569 16.7984C5.64569 18.0849 5.85642 19.2996 6.27787 20.4424C6.69932 21.5852 7.29822 22.622 8.07458 23.5527C8.31858 23.8411 8.4459 24.1685 8.45655 24.5349C8.4672 24.9013 8.33988 25.2172 8.07458 25.4825ZM11.8344 21.7227C11.5682 21.9889 11.2466 22.1278 10.8695 22.1393C10.4924 22.1508 10.1929 22.0009 9.97112 21.6894C9.46094 21.0018 9.0559 20.2476 8.756 19.4269C8.45611 18.6062 8.3066 17.73 8.30749 16.7984C8.30749 14.5802 9.08385 12.6948 10.6366 11.1421C12.1893 9.58934 14.0747 8.81298 16.2929 8.81298C18.5111 8.81298 20.3965 9.58934 21.9492 11.1421C23.5019 12.6948 24.2783 14.5802 24.2783 16.7984C24.2783 17.73 24.1288 18.612 23.8298 19.4442C23.5308 20.2765 23.1257 21.0249 22.6147 21.6894C22.3929 21.9778 22.0934 22.1278 21.7163 22.1393C21.3392 22.1508 21.0176 22.0231 20.7514 21.756C20.5074 21.512 20.3801 21.2014 20.3694 20.8244C20.3588 20.4473 20.4639 20.1035 20.6849 19.7929C20.9732 19.3493 21.2008 18.8781 21.3676 18.3795C21.5344 17.8808 21.6174 17.3538 21.6165 16.7984C21.6165 15.3344 21.0952 14.0811 20.0527 13.0386C19.0101 11.9961 17.7569 11.4748 16.2929 11.4748C14.8289 11.4748 13.5756 11.9961 12.5331 13.0386C11.4906 14.0811 10.9693 15.3344 10.9693 16.7984C10.9693 17.3751 11.0527 17.9075 11.2195 18.3955C11.3863 18.8835 11.6134 19.3493 11.9009 19.7929C12.1227 20.1035 12.2283 20.4419 12.2177 20.8084C12.207 21.1748 12.0793 21.4796 11.8344 21.7227Z" fill="#E32120"/>
</svg>
