<svg width="33" height="33" viewBox="0 0 33 33" fill="none" xmlns="http://www.w3.org/2000/svg">
<path d="M18.9551 19.4597H9.63879V22.1215H18.9551M25.6096 26.1142H6.97699V11.4743H25.6096M25.6096 4.81976H24.2787V2.15796H21.6169V4.81976H10.9697V2.15796H8.30789V4.81976H6.97699C6.27103 4.81976 5.59399 5.1002 5.09481 5.59938C4.59562 6.09857 4.31519 6.77561 4.31519 7.48156V26.1142C4.31519 26.8201 4.59562 27.4972 5.09481 27.9963C5.59399 28.4955 6.27103 28.776 6.97699 28.776H25.6096C26.3155 28.776 26.9926 28.4955 27.4918 27.9963C27.9909 27.4972 28.2714 26.8201 28.2714 26.1142V7.48156C28.2714 6.77561 27.9909 6.09857 27.4918 5.59938C26.9926 5.1002 26.3155 4.81976 25.6096 4.81976ZM22.9478 14.1361H9.63879V16.7979H22.9478V14.1361Z" fill="#E32120"/>
</svg>
