<svg width="41" height="41" viewBox="0 0 41 41" fill="none" xmlns="http://www.w3.org/2000/svg">
<path d="M17.2293 35.4999H23.8959C23.8959 36.384 23.5448 37.2318 22.9196 37.8569C22.2945 38.4821 21.4467 38.8333 20.5626 38.8333C19.6786 38.8333 18.8307 38.4821 18.2056 37.8569C17.5805 37.2318 17.2293 36.384 17.2293 35.4999ZM35.5626 32.1666V33.8333H5.56261V32.1666L8.89595 28.8333V18.8333C8.89595 13.6666 12.2793 9.11659 17.2293 7.64992V7.16659C17.2293 6.28253 17.5805 5.43468 18.2056 4.80956C18.8307 4.18444 19.6786 3.83325 20.5626 3.83325C21.4467 3.83325 22.2945 4.18444 22.9196 4.80956C23.5448 5.43468 23.8959 6.28253 23.8959 7.16659V7.64992C28.8459 9.11659 32.2293 13.6666 32.2293 18.8333V28.8333L35.5626 32.1666ZM28.8959 18.8333C28.8959 16.6231 28.018 14.5035 26.4552 12.9407C24.8924 11.3779 22.7728 10.4999 20.5626 10.4999C18.3525 10.4999 16.2329 11.3779 14.6701 12.9407C13.1073 14.5035 12.2293 16.6231 12.2293 18.8333V30.4999H28.8959V18.8333ZM33.4793 5.81659L31.1126 8.18325C32.5224 9.57551 33.6417 11.2338 34.4056 13.062C35.1695 14.8902 35.5627 16.8519 35.5626 18.8333H38.8959C38.8959 13.9499 36.9626 9.24992 33.4793 5.81659ZM2.22928 18.8333H5.56261C5.56261 14.8333 7.16261 10.9999 10.0126 8.18325L7.64595 5.81659C5.92575 7.5192 4.56106 9.5467 3.63118 11.7813C2.7013 14.0158 2.22477 16.4129 2.22928 18.8333Z" fill="#6B6A6A"/>
</svg>
