<svg width="119" height="119" viewBox="0 0 119 119" fill="none" xmlns="http://www.w3.org/2000/svg">
<path d="M59.1797 30.0702C60.5737 30.0702 61.7431 29.5979 62.6877 28.6533C63.6323 27.7086 64.103 26.5409 64.0997 25.1502C64.0965 23.7595 63.6241 22.5918 62.6828 21.6472C61.7414 20.7025 60.5737 20.2302 59.1797 20.2302C57.7857 20.2302 56.6181 20.7025 55.6767 21.6472C54.7353 22.5918 54.263 23.7595 54.2597 25.1502C54.2565 26.5409 54.7288 27.7103 55.6767 28.6582C56.6246 29.6061 57.7923 30.0768 59.1797 30.0702ZM34.5797 113.71C31.8737 113.71 29.5581 112.748 27.6327 110.822C25.7073 108.897 24.743 106.579 24.7397 103.87V15.3102C24.7397 12.6042 25.7041 10.2885 27.6327 8.36317C29.5613 6.43782 31.877 5.47349 34.5797 5.47021H83.7797C86.4857 5.47021 88.8031 6.43454 90.7317 8.36317C92.6603 10.2918 93.623 12.6075 93.6198 15.3102V30.5622C95.0957 31.1362 96.2848 32.0382 97.1868 33.2682C98.0888 34.4982 98.5397 35.8922 98.5397 37.4502V47.2902C98.5397 48.8482 98.0888 50.2422 97.1868 51.4722C96.2848 52.7022 95.0957 53.6042 93.6198 54.1782V59.5902C93.6198 60.9842 93.1474 62.1535 92.2028 63.0982C91.2581 64.0428 90.0905 64.5135 88.6997 64.5102C87.309 64.5069 86.1413 64.0346 85.1967 63.0933C84.2521 62.1519 83.7797 60.9842 83.7797 59.5902V15.3102H34.5797V103.87H39.4997C40.8937 103.87 42.0631 104.343 43.0077 105.287C43.9523 106.232 44.423 107.399 44.4197 108.79C44.4165 110.181 43.9441 111.35 43.0028 112.298C42.0614 113.246 40.8937 113.717 39.4997 113.71H34.5797ZM68.1587 94.0302L75.4157 101.287C76.3177 102.189 76.7687 103.318 76.7687 104.672C76.7687 106.027 76.3177 107.194 75.4157 108.175C74.4317 109.159 73.2641 109.651 71.9127 109.651C70.5613 109.651 69.392 109.159 68.4047 108.175L57.7037 97.4742C56.7197 96.4902 56.2277 95.3422 56.2277 94.0302C56.2277 92.7182 56.7197 91.5702 57.7037 90.5862L68.5277 79.7622C69.5117 78.7782 70.6597 78.3059 71.9717 78.3453C73.2837 78.3846 74.4317 78.8979 75.4157 79.8852C76.3177 80.8692 76.7884 82.0172 76.8278 83.3292C76.8671 84.6412 76.3965 85.7892 75.4157 86.7732L68.1587 94.0302ZM99.4007 94.0302L92.1438 86.7732C91.2418 85.8712 90.7907 84.7445 90.7907 83.3932C90.7907 82.0418 91.2418 80.8725 92.1438 79.8852C93.1278 78.9012 94.2971 78.4092 95.6517 78.4092C97.0063 78.4092 98.174 78.9012 99.1547 79.8852L109.856 90.5862C110.84 91.5702 111.332 92.7182 111.332 94.0302C111.332 95.3422 110.84 96.4902 109.856 97.4742L99.0317 108.298C98.0478 109.282 96.8997 109.755 95.5877 109.715C94.2757 109.676 93.1278 109.162 92.1438 108.175C91.2418 107.191 90.7694 106.043 90.7268 104.731C90.6842 103.419 91.1565 102.271 92.1438 101.287L99.4007 94.0302Z" fill="#E32120"/>
</svg>
