<svg width="119" height="119" viewBox="0 0 119 119" fill="none" xmlns="http://www.w3.org/2000/svg">
<path d="M27.5685 10.7543C28.1949 11.0555 28.7235 11.5275 29.0934 12.1159C29.4633 12.7043 29.6596 13.3852 29.6595 14.0803C29.6595 18.1639 31.1945 20.5156 33.1183 23.3791L33.2609 23.5857C34.8944 26.0162 37.0395 29.1994 37.0395 33.7603C37.0395 37.3486 35.614 40.79 33.0767 43.3274C30.5393 45.8648 27.0979 47.2903 23.5095 47.2903C19.9211 47.2903 16.4797 45.8648 13.9423 43.3274C11.405 40.79 9.97949 37.3486 9.97949 33.7603C9.97949 31.9497 9.97949 28.8353 11.8639 24.8157C13.7089 20.8797 17.2168 16.3582 23.662 11.1971C24.2052 10.7626 24.8602 10.4905 25.5514 10.4122C26.2426 10.3338 26.9418 10.4524 27.5685 10.7543ZM23.5095 54.6703C27.6533 54.6774 31.7049 53.4474 35.1453 51.1377C36.4294 54.749 37.0395 59.5509 37.0395 65.7649C37.0395 74.1879 35.9079 84.3034 34.0629 92.3821C33.1478 96.3968 32.0113 100.102 30.6583 102.881C30.0224 104.266 29.176 105.544 28.1491 106.67C27.1355 107.708 25.5759 108.815 23.5095 108.815C21.4431 108.815 19.8835 107.708 18.8749 106.67C17.8479 105.544 17.0015 104.266 16.3657 102.881C15.0077 100.097 13.8712 96.3968 12.9561 92.3771C11.0352 83.6333 10.0376 74.712 9.97949 65.7599C9.97949 59.5509 10.5896 54.749 11.8737 51.1377C15.3141 53.4474 19.3657 54.6774 23.5095 54.6703ZM41.8808 69.8091C44.2486 70.8499 46.7658 71.5107 49.3395 71.7673V60.8203C49.3395 58.7204 49.7531 56.6411 50.5567 54.7011C51.3602 52.7612 52.5381 50.9984 54.0229 49.5136C57.0216 46.5149 61.0887 44.8303 65.3295 44.8303H76.2765C75.8724 40.8031 74.481 36.9379 72.2255 33.5772C69.97 30.2166 66.9202 27.4644 63.3464 25.5646C59.7726 23.6648 55.7853 22.6762 51.7379 22.6863C47.6906 22.6964 43.7083 23.705 40.144 25.6226C39.3782 24.0072 38.4762 22.46 37.4479 20.9978L37.2019 20.6337L36.3212 19.2955C41.0082 16.703 46.2713 15.3292 51.6274 15.3003C56.9835 15.2714 62.2611 16.5883 66.9758 19.13C71.6905 21.6718 75.6913 25.357 78.611 29.8474C81.5307 34.3379 83.2757 39.4898 83.686 44.8303H92.3895C94.4893 44.8303 96.5686 45.2439 98.5086 46.0474C100.449 46.851 102.211 48.0288 103.696 49.5136C105.181 50.9984 106.359 52.7612 107.162 54.7011C107.966 56.6411 108.38 58.7204 108.38 60.8203V87.8803C108.38 89.9801 107.966 92.0594 107.162 93.9994C106.359 95.9394 105.181 97.7021 103.696 99.1869C102.211 100.672 100.449 101.85 98.5086 102.653C96.5686 103.457 94.4893 103.87 92.3895 103.87H65.3295C61.0887 103.87 57.0216 102.186 54.0229 99.1869C51.0242 96.1882 49.3395 92.1211 49.3395 87.8803V79.1768C46.6217 78.9695 43.9415 78.4156 41.3642 77.5286C41.6102 74.921 41.7873 72.3232 41.8808 69.8091ZM92.3895 52.2103H83.4056C82.3595 58.9124 79.211 65.1088 74.4145 69.9053C69.618 74.7018 63.4216 77.8502 56.7195 78.8963V87.8803C56.7195 92.633 60.5768 96.4903 65.3295 96.4903H92.3895C94.673 96.4903 96.863 95.5831 98.4777 93.9684C100.092 92.3538 101 90.1638 101 87.8803V60.8203C101 58.5367 100.092 56.3468 98.4777 54.7321C96.863 53.1174 94.673 52.2103 92.3895 52.2103ZM56.7195 71.3983C61.4444 70.4281 65.7809 68.0931 69.1916 64.6824C72.6023 61.2716 74.9374 56.9352 75.9075 52.2103H65.3295C63.046 52.2103 60.856 53.1174 59.2413 54.7321C57.6266 56.3468 56.7195 58.5367 56.7195 60.8203V71.3983Z" fill="#E32120"/>
</svg>
