<svg width="32" height="32" viewBox="0 0 32 32" fill="none" xmlns="http://www.w3.org/2000/svg">
<path d="M2.66699 22.6666V26.6666H13.3337V24.1466H5.20033V22.6666C5.20033 21.8133 9.37366 19.8666 13.3337 19.8666C14.6137 19.88 15.8803 20.0533 17.107 20.3733L19.1337 18.3466C17.267 17.72 15.3337 17.3733 13.3337 17.3333C9.77366 17.3333 2.66699 19.1066 2.66699 22.6666ZM13.3337 5.33331C10.387 5.33331 8.00033 7.71998 8.00033 10.6666C8.00033 13.6133 10.387 16 13.3337 16C16.2803 16 18.667 13.6133 18.667 10.6666C18.667 7.71998 16.2803 5.33331 13.3337 5.33331ZM13.3337 13.3333C11.867 13.3333 10.667 12.1466 10.667 10.6666C10.667 9.18665 11.867 7.99998 13.3337 7.99998C14.8003 7.99998 16.0003 9.19998 16.0003 10.6666C16.0003 12.1333 14.8137 13.3333 13.3337 13.3333ZM28.9337 17.8L27.6003 19.1333L24.867 16.4666L26.2003 15.1333C26.3374 14.9989 26.5217 14.9237 26.7137 14.9237C26.9056 14.9237 27.0899 14.9989 27.227 15.1333L28.9337 16.84C29.2137 17.12 29.2137 17.5866 28.9337 17.8666M16.0003 25.2533L24.0803 17.1733L26.8137 19.84L18.8137 27.9333H16.0003V25.2533Z" fill="#E32120"/>
</svg>
