<svg width="32" height="32" viewBox="0 0 32 32" fill="none" xmlns="http://www.w3.org/2000/svg">
<path d="M21 20C20.7348 20 20.4804 20.1054 20.2929 20.2929C20.1054 20.4804 20 20.7348 20 21C20 21.2652 20.1054 21.5196 20.2929 21.7071C20.4804 21.8946 20.7348 22 21 22H25C25.2652 22 25.5196 21.8946 25.7071 21.7071C25.8946 21.5196 26 21.2652 26 21C26 20.7348 25.8946 20.4804 25.7071 20.2929C25.5196 20.1054 25.2652 20 25 20H21ZM2 11C2 9.67392 2.52678 8.40215 3.46447 7.46447C4.40215 6.52678 5.67392 6 7 6H25C26.3261 6 27.5979 6.52678 28.5355 7.46447C29.4732 8.40215 30 9.67392 30 11V21C30 22.3261 29.4732 23.5979 28.5355 24.5355C27.5979 25.4732 26.3261 26 25 26H7C5.67392 26 4.40215 25.4732 3.46447 24.5355C2.52678 23.5979 2 22.3261 2 21V11ZM28 12V11C28 10.2044 27.6839 9.44129 27.1213 8.87868C26.5587 8.31607 25.7956 8 25 8H7C6.20435 8 5.44129 8.31607 4.87868 8.87868C4.31607 9.44129 4 10.2044 4 11V12H28ZM4 14V21C4 21.7956 4.31607 22.5587 4.87868 23.1213C5.44129 23.6839 6.20435 24 7 24H25C25.7956 24 26.5587 23.6839 27.1213 23.1213C27.6839 22.5587 28 21.7956 28 21V14H4Z" fill="#E32120"/>
</svg>
