<svg width="32" height="32" viewBox="0 0 32 32" fill="none" xmlns="http://www.w3.org/2000/svg">
<path d="M15.6667 25.3334H15.3333C12.1778 25.3334 9.5 24.2334 7.3 22.0334C5.1 19.8334 4 17.1556 4 14C4 10.8445 5.1 8.16669 7.3 5.96669C9.5 3.76669 12.1778 2.66669 15.3333 2.66669C16.9111 2.66669 18.3836 2.96091 19.7507 3.54935C21.1178 4.1378 22.3178 4.94891 23.3507 5.98269C24.3836 7.01646 25.1942 8.21646 25.7827 9.58269C26.3711 10.9489 26.6658 12.4214 26.6667 14C26.6667 16.9778 25.8276 19.7445 24.1493 22.3C22.4711 24.8556 20.3547 26.8556 17.8 28.3C17.5778 28.4111 17.3556 28.4725 17.1333 28.484C16.9111 28.4956 16.7111 28.4454 16.5333 28.3334C16.3556 28.2214 16.2 28.0769 16.0667 27.9C15.9333 27.7231 15.8556 27.512 15.8333 27.2667L15.6667 25.3334ZM18.6667 24.4667C20.2444 23.1334 21.528 21.5725 22.5173 19.784C23.5067 17.9956 24.0009 16.0676 24 14C24 11.5778 23.1609 9.52802 21.4827 7.85069C19.8044 6.17335 17.7547 5.33424 15.3333 5.33335C12.912 5.33246 10.8622 6.17158 9.184 7.85069C7.50578 9.5298 6.66667 11.5796 6.66667 14C6.66667 16.4205 7.50578 18.4707 9.184 20.1507C10.8622 21.8307 12.912 22.6694 15.3333 22.6667H18.6667V24.4667ZM15.3 21.3C15.6778 21.3 16 21.1667 16.2667 20.9C16.5333 20.6334 16.6667 20.3111 16.6667 19.9334C16.6667 19.5556 16.5333 19.2334 16.2667 18.9667C16 18.7 15.6778 18.5667 15.3 18.5667C14.9222 18.5667 14.6 18.7 14.3333 18.9667C14.0667 19.2334 13.9333 19.5556 13.9333 19.9334C13.9333 20.3111 14.0667 20.6334 14.3333 20.9C14.6 21.1667 14.9222 21.3 15.3 21.3ZM12.4 11.1667C12.6444 11.2778 12.8889 11.2836 13.1333 11.184C13.3778 11.0845 13.5778 10.9231 13.7333 10.7C13.9333 10.4334 14.1667 10.2276 14.4333 10.0827C14.7 9.9378 15 9.8658 15.3333 9.86669C15.8667 9.86669 16.3 10.0165 16.6333 10.316C16.9667 10.6156 17.1333 10.9991 17.1333 11.4667C17.1333 11.7556 17.0502 12.0445 16.884 12.3334C16.7178 12.6222 16.4231 12.9778 16 13.4C15.4444 13.8889 15.0333 14.3502 14.7667 14.784C14.5 15.2178 14.3667 15.6565 14.3667 16.1C14.3667 16.3667 14.4613 16.5947 14.6507 16.784C14.84 16.9734 15.0676 17.0676 15.3333 17.0667C15.5991 17.0658 15.8213 16.9658 16 16.7667C16.1787 16.5676 16.312 16.3342 16.4 16.0667C16.5111 15.6889 16.7111 15.3445 17 15.0334C17.2889 14.7222 17.5556 14.4445 17.8 14.2C18.2667 13.7334 18.6169 13.2667 18.8507 12.8C19.0844 12.3334 19.2009 11.8667 19.2 11.4C19.2 10.3778 18.8498 9.55558 18.1493 8.93335C17.4489 8.31113 16.5102 8.00002 15.3333 8.00002C14.6222 8.00002 13.9667 8.17246 13.3667 8.51735C12.7667 8.86224 12.2778 9.33424 11.9 9.93335C11.7667 10.1778 11.7498 10.4169 11.8493 10.6507C11.9489 10.8845 12.1324 11.0565 12.4 11.1667Z" fill="#E32120"/>
</svg>
