<svg width="32" height="32" viewBox="0 0 32 32" fill="none" xmlns="http://www.w3.org/2000/svg">
<path d="M16.0003 16.6334L18.5337 18.1667C18.7781 18.3222 19.0226 18.3169 19.267 18.1507C19.5114 17.9845 19.6003 17.7565 19.5337 17.4667L18.867 14.5667L21.1337 12.6C21.3559 12.4 21.4226 12.1614 21.3337 11.884C21.2448 11.6067 21.0448 11.4565 20.7337 11.4334L17.767 11.2L16.6003 8.46669C16.4892 8.20002 16.2892 8.06669 16.0003 8.06669C15.7114 8.06669 15.5114 8.20002 15.4003 8.46669L14.2337 11.2L11.267 11.4334C10.9559 11.4556 10.7559 11.6058 10.667 11.884C10.5781 12.1622 10.6448 12.4009 10.867 12.6L13.1337 14.5667L12.467 17.4667C12.4003 17.7556 12.4892 17.9836 12.7337 18.1507C12.9781 18.3178 13.2226 18.3231 13.467 18.1667L16.0003 16.6334ZM8.00033 24L4.93366 27.0667C4.51144 27.4889 4.02788 27.5836 3.48299 27.3507C2.93811 27.1178 2.66611 26.7009 2.66699 26.1V5.33335C2.66699 4.60002 2.92833 3.97246 3.45099 3.45069C3.97366 2.92891 4.60122 2.66758 5.33366 2.66669H26.667C27.4003 2.66669 28.0283 2.92802 28.551 3.45069C29.0737 3.97335 29.3346 4.60091 29.3337 5.33335V21.3334C29.3337 22.0667 29.0728 22.6947 28.551 23.2174C28.0292 23.74 27.4012 24.0009 26.667 24H8.00033ZM6.86699 21.3334H26.667V5.33335H5.33366V22.8334L6.86699 21.3334Z" fill="#E32120"/>
</svg>
