<svg width="32" height="32" viewBox="0 0 32 32" fill="none" xmlns="http://www.w3.org/2000/svg">
<path d="M15.3337 5.33332C14.096 5.33332 12.909 5.82499 12.0338 6.70016C11.1587 7.57533 10.667 8.76231 10.667 9.99999C10.667 11.2377 11.1587 12.4247 12.0338 13.2998C12.909 14.175 14.096 14.6667 15.3337 14.6667C16.5713 14.6667 17.7583 14.175 18.6335 13.2998C19.5087 12.4247 20.0003 11.2377 20.0003 9.99999C20.0003 8.76231 19.5087 7.57533 18.6335 6.70016C17.7583 5.82499 16.5713 5.33332 15.3337 5.33332ZM8.00033 9.99999C8.00033 8.05507 8.77294 6.18981 10.1482 4.81454C11.5235 3.43927 13.3887 2.66666 15.3337 2.66666C17.2786 2.66666 19.1438 3.43927 20.5191 4.81454C21.8944 6.18981 22.667 8.05507 22.667 9.99999C22.667 11.9449 21.8944 13.8102 20.5191 15.1854C19.1438 16.5607 17.2786 17.3333 15.3337 17.3333C13.3887 17.3333 11.5235 16.5607 10.1482 15.1854C8.77294 13.8102 8.00033 11.9449 8.00033 9.99999ZM25.3337 17.3333V22.6667H30.667V25.3333H25.3337V30.6667H22.667V25.3333H17.3337V22.6667H22.667V17.3333H25.3337ZM10.667 21.3333C9.2525 21.3333 7.89595 21.8952 6.89576 22.8954C5.89556 23.8956 5.33366 25.2522 5.33366 26.6667H16.067V29.3333H2.66699V26.6667C2.66699 24.5449 3.50985 22.5101 5.01014 21.0098C6.51043 19.5095 8.54526 18.6667 10.667 18.6667H16.0003V21.3333H10.667Z" fill="#E32120"/>
</svg>
