<svg width="26" height="26" viewBox="0 0 26 26" fill="none" xmlns="http://www.w3.org/2000/svg">
<g clip-path="url(#clip0_29_578)">
<path d="M7.52257 0.908691C7.7552 0.908691 7.9783 1.0011 8.14279 1.1656C8.30728 1.33009 8.3997 1.55319 8.3997 1.78582V3.42605H17.8188V1.7971C17.8188 1.56447 17.9112 1.34137 18.0757 1.17687C18.2402 1.01238 18.4633 0.919969 18.6959 0.919969C18.9286 0.919969 19.1517 1.01238 19.3162 1.17687C19.4807 1.34137 19.5731 1.56447 19.5731 1.7971V3.42605H22.9688C23.6332 3.42605 24.2705 3.68991 24.7404 4.15962C25.2104 4.62933 25.4746 5.26644 25.4749 5.93088V23.4647C25.4746 24.1291 25.2104 24.7662 24.7404 25.2359C24.2705 25.7057 23.6332 25.9695 22.9688 25.9695H2.92015C2.25571 25.9695 1.61847 25.7057 1.14852 25.2359C0.678574 24.7662 0.414395 24.1291 0.414063 23.4647L0.414062 5.93088C0.414395 5.26644 0.678574 4.62933 1.14852 4.15962C1.61847 3.68991 2.25571 3.42605 2.92015 3.42605H6.64544V1.78457C6.64577 1.55216 6.73833 1.32938 6.90279 1.16515C7.06724 1.00093 7.29015 0.908691 7.52257 0.908691ZM2.16832 10.6097V23.4647C2.16832 23.5634 2.18777 23.6612 2.22555 23.7524C2.26333 23.8436 2.31871 23.9265 2.38852 23.9963C2.45834 24.0661 2.54122 24.1215 2.63243 24.1593C2.72365 24.1971 2.82141 24.2165 2.92015 24.2165H22.9688C23.0675 24.2165 23.1653 24.1971 23.2565 24.1593C23.3477 24.1215 23.4306 24.0661 23.5004 23.9963C23.5702 23.9265 23.6256 23.8436 23.6634 23.7524C23.7012 23.6612 23.7206 23.5634 23.7206 23.4647V10.6273L2.16832 10.6097ZM8.76809 19.2269V21.3145H6.67927V19.2269H8.76809ZM13.9883 19.2269V21.3145H11.9007V19.2269H13.9883ZM19.2097 19.2269V21.3145H17.1209V19.2269H19.2097ZM8.76809 14.2436V16.3311H6.67927V14.2436H8.76809ZM13.9883 14.2436V16.3311H11.9007V14.2436H13.9883ZM19.2097 14.2436V16.3311H17.1209V14.2436H19.2097ZM6.64544 5.17906H2.92015C2.82141 5.17906 2.72365 5.1985 2.63243 5.23629C2.54122 5.27407 2.45834 5.32945 2.38852 5.39926C2.31871 5.46907 2.26333 5.55195 2.22555 5.64317C2.18777 5.73439 2.16832 5.83215 2.16832 5.93088V8.85673L23.7206 8.87428V5.93088C23.7206 5.83215 23.7012 5.73439 23.6634 5.64317C23.6256 5.55195 23.5702 5.46907 23.5004 5.39926C23.4306 5.32945 23.3477 5.27407 23.2565 5.23629C23.1653 5.1985 23.0675 5.17906 22.9688 5.17906H19.5731V6.34313C19.5731 6.57576 19.4807 6.79886 19.3162 6.96336C19.1517 7.12785 18.9286 7.22026 18.6959 7.22026C18.4633 7.22026 18.2402 7.12785 18.0757 6.96336C17.9112 6.79886 17.8188 6.57576 17.8188 6.34313V5.17906H8.3997V6.33185C8.3997 6.56448 8.30728 6.78758 8.14279 6.95208C7.9783 7.11657 7.7552 7.20898 7.52257 7.20898C7.28994 7.20898 7.06684 7.11657 6.90234 6.95208C6.73785 6.78758 6.64544 6.56448 6.64544 6.33185V5.17906Z" fill="#AAAAAA" fill-opacity="0.86"/>
</g>
<defs>
<clipPath id="clip0_29_578">
<rect width="25.0608" height="25.0608" fill="white" transform="translate(0.414062 0.908691)"/>
</clipPath>
</defs>
</svg>
